<svg xmlns="http://www.w3.org/2000/svg">
	<symbol id="foreground" viewBox="0 0 900 206">
		<path d="M.458,206a116.581,116.581,0,0,1,128.2-64.906C146.272,60.422,218.37,0,304.65,0A180.179,180.179,0,0,1,468,103.74a81.5,81.5,0,0,1,133.112,16.328,116.234,116.234,0,0,1,99.795-56.416c64.178,0,116.205,51.814,116.205,115.73q0,1.5-.038,3A69.93,69.93,0,0,1,900.458,206Z" transform="translate(-0.458)" fill-rule="evenodd"/>
	</symbol>
	<symbol id="background-small-1" viewBox="0 0 1482 166">
		<path d="M202-532a23.227,23.227,0,0,1,21.1-13.685,23.049,23.049,0,0,1,4.543.452A36.167,36.167,0,0,1,262.839-574a36,36,0,0,1,32.671,21.151,16.121,16.121,0,0,1,12.184-5.577,16.236,16.236,0,0,1,14.438,8.906,23.162,23.162,0,0,1,19.959-11.5,23.421,23.421,0,0,1,23.241,23.6q0,.307-.008.61a13.737,13.737,0,0,1,5.353-1.082A13.859,13.859,0,0,1,382-532Zm-1302-98a37.95,37.95,0,0,1,34.457-22.157,37.909,37.909,0,0,1,7.422.732A58.945,58.945,0,0,1-1000.631-698a58.823,58.823,0,0,1,53.363,34.245,26.427,26.427,0,0,1,19.9-9.031,26.544,26.544,0,0,1,23.582,14.421,37.893,37.893,0,0,1,32.6-18.623,38.081,38.081,0,0,1,37.96,38.2q0,.5-.012.989a22.573,22.573,0,0,1,8.743-1.753A22.7,22.7,0,0,1-806-630Z" transform="translate(1100 698)"/>
	</symbol>
	<symbol id="background-small-2" viewBox="0 0 1482 166">
		<path d="M-4464-532a37.951,37.951,0,0,1,34.457-22.156,37.934,37.934,0,0,1,7.422.732A58.946,58.946,0,0,1-4364.631-600a58.821,58.821,0,0,1,53.363,34.245,26.43,26.43,0,0,1,19.9-9.031,26.542,26.542,0,0,1,23.582,14.421,37.894,37.894,0,0,1,32.6-18.623,38.081,38.081,0,0,1,37.959,38.2q0,.5-.011.989a22.591,22.591,0,0,1,8.743-1.753A22.7,22.7,0,0,1-4170-532Zm1302-124a23.227,23.227,0,0,1,21.1-13.685,23.088,23.088,0,0,1,4.543.451,36.167,36.167,0,0,1,35.2-28.766,36,36,0,0,1,32.671,21.15,16.122,16.122,0,0,1,12.185-5.577,16.234,16.234,0,0,1,14.438,8.907,23.164,23.164,0,0,1,19.96-11.5,23.421,23.421,0,0,1,23.241,23.595c0,.205,0,.408-.008.611a13.733,13.733,0,0,1,5.353-1.082A13.861,13.861,0,0,1-2982-656Z" transform="translate(4464 698)"/>
	</symbol>
	<symbol id="background-large-1" viewBox="0 0 1482 498">
		<path d="M-894,498a23.224,23.224,0,0,1,21.1-13.685,22.989,22.989,0,0,1,4.544.453A36.166,36.166,0,0,1-833.161,456a36,36,0,0,1,32.671,21.151,16.12,16.12,0,0,1,12.184-5.578,16.237,16.237,0,0,1,14.438,8.906,23.162,23.162,0,0,1,19.959-11.5,23.42,23.42,0,0,1,23.241,23.6q0,.306-.007.611a13.715,13.715,0,0,1,5.353-1.083A13.86,13.86,0,0,1-714,498ZM52,378a37.889,37.889,0,0,1,41.879-21.425,58.739,58.739,0,0,1,110.853-12.331,26.471,26.471,0,0,1,43.483,5.39,37.919,37.919,0,0,1,70.56,19.579c0,.331,0,.661-.013.989A22.681,22.681,0,0,1,346,378ZM202,166a23.227,23.227,0,0,1,21.1-13.685,22.979,22.979,0,0,1,4.543.453,35.87,35.87,0,0,1,67.87-7.616,16.13,16.13,0,0,1,26.622,3.328,23.162,23.162,0,0,1,19.959-11.5,23.421,23.421,0,0,1,23.241,23.6c0,.2,0,.409-.008.611a13.721,13.721,0,0,1,5.353-1.083A13.859,13.859,0,0,1,382,166ZM-1100,68a37.95,37.95,0,0,1,34.457-22.158,37.911,37.911,0,0,1,7.422.733A58.944,58.944,0,0,1-1000.631,0a58.822,58.822,0,0,1,53.363,34.244,26.43,26.43,0,0,1,19.9-9.031,26.544,26.544,0,0,1,23.582,14.421,37.893,37.893,0,0,1,32.6-18.623,38.081,38.081,0,0,1,37.96,38.2q0,.5-.012.988a22.572,22.572,0,0,1,8.743-1.752A22.7,22.7,0,0,1-806,68Z" transform="translate(1100)"/>
	</symbol>
	<symbol id="background-large-2" viewBox="0 0 1482 498">
		<path d="M-1627,498a23.227,23.227,0,0,1,21.1-13.685,22.98,22.98,0,0,1,4.543.453,36.166,36.166,0,0,1,35.2-28.767,36,36,0,0,1,32.671,21.151,16.119,16.119,0,0,1,12.184-5.578,16.237,16.237,0,0,1,14.438,8.906,23.163,23.163,0,0,1,19.959-11.5,23.421,23.421,0,0,1,23.241,23.6c0,.2,0,.409-.008.611a13.721,13.721,0,0,1,5.353-1.083A13.859,13.859,0,0,1-1447,498Zm-951-107a23.225,23.225,0,0,1,21.1-13.685,22.985,22.985,0,0,1,4.544.453,36.166,36.166,0,0,1,35.2-28.767,36,36,0,0,1,32.671,21.151,16.12,16.12,0,0,1,12.184-5.578,16.236,16.236,0,0,1,14.438,8.906,23.163,23.163,0,0,1,19.959-11.5,23.42,23.42,0,0,1,23.241,23.6q0,.306-.007.611a13.715,13.715,0,0,1,5.353-1.083A13.86,13.86,0,0,1-2398,391Zm-204-142a37.95,37.95,0,0,1,34.457-22.158,37.909,37.909,0,0,1,7.422.733A58.944,58.944,0,0,1-2682.631,181a58.822,58.822,0,0,1,53.363,34.244,26.429,26.429,0,0,1,19.9-9.031,26.543,26.543,0,0,1,23.582,14.421,37.893,37.893,0,0,1,32.6-18.623,38.081,38.081,0,0,1,37.96,38.2q0,.5-.012.988a22.572,22.572,0,0,1,8.743-1.752A22.7,22.7,0,0,1-2488,249ZM-1594,68a37.949,37.949,0,0,1,34.456-22.157,37.91,37.91,0,0,1,7.422.732A58.945,58.945,0,0,1-1494.631,0a58.823,58.823,0,0,1,53.363,34.244,26.43,26.43,0,0,1,19.9-9.031,26.544,26.544,0,0,1,23.582,14.421,37.893,37.893,0,0,1,32.6-18.623,38.081,38.081,0,0,1,37.96,38.2c0,.331,0,.661-.013.989a22.581,22.581,0,0,1,8.744-1.753A22.7,22.7,0,0,1-1300,68Z" transform="translate(2782)"/>
	</symbol>
	<symbol id="background-large-3" viewBox="0 0 1482 498">
		<path d="M-4380,498a37.952,37.952,0,0,1,34.458-22.158,37.934,37.934,0,0,1,7.422.733A58.945,58.945,0,0,1-4280.631,430a58.823,58.823,0,0,1,53.363,34.244,26.429,26.429,0,0,1,19.9-9.03,26.54,26.54,0,0,1,23.582,14.421,37.894,37.894,0,0,1,32.6-18.623,38.082,38.082,0,0,1,37.961,38.2c0,.331,0,.66-.012.988a22.585,22.585,0,0,1,8.743-1.752A22.7,22.7,0,0,1-4086,498Zm1043-168a37.948,37.948,0,0,1,34.457-22.156,37.942,37.942,0,0,1,7.422.732A58.945,58.945,0,0,1-3237.631,262a58.824,58.824,0,0,1,53.363,34.244,26.43,26.43,0,0,1,19.9-9.03,26.543,26.543,0,0,1,23.583,14.421,37.891,37.891,0,0,1,32.6-18.623,38.082,38.082,0,0,1,37.961,38.2c0,.332,0,.661-.012.989a22.589,22.589,0,0,1,8.743-1.753A22.7,22.7,0,0,1-3043,330Zm175-121a23.226,23.226,0,0,1,21.1-13.686,23.014,23.014,0,0,1,4.544.453,36.166,36.166,0,0,1,35.2-28.766,36,36,0,0,1,32.671,21.15,16.122,16.122,0,0,1,12.185-5.578,16.236,16.236,0,0,1,14.438,8.907,23.164,23.164,0,0,1,19.959-11.5,23.421,23.421,0,0,1,23.241,23.6c0,.2,0,.408-.008.611a13.714,13.714,0,0,1,5.353-1.082A13.858,13.858,0,0,1-2982,209ZM-4464,42a23.223,23.223,0,0,1,21.1-13.686,23.02,23.02,0,0,1,4.544.453A36.166,36.166,0,0,1-4403.163,0a36,36,0,0,1,32.672,21.15,16.121,16.121,0,0,1,12.185-5.578,16.237,16.237,0,0,1,14.438,8.907,23.16,23.16,0,0,1,19.958-11.5,23.421,23.421,0,0,1,23.241,23.6c0,.2,0,.408-.007.611a13.709,13.709,0,0,1,5.353-1.082A13.859,13.859,0,0,1-4284,42Z" transform="translate(4464)"/>
	</symbol>
</svg>