<svg xmlns="http://www.w3.org/2000/svg">
	<symbol id="icon" viewBox="0 0 58 40">
		<path d="M25.4,40V28.475L58,30.515v6.032A3.458,3.458,0,0,1,54.537,40Zm10.91-4.383a.864.864,0,0,0-.834-.863L29.41,34.53a.864.864,0,0,0-.9.863V36.2a.864.864,0,0,0,.862.863l6.069.022a.864.864,0,0,0,.869-.863ZM25.4,14.178,58,19v9.47L25.4,25.9Zm3.11,8.009a.864.864,0,0,0,.767.858l6.069.7a.865.865,0,0,0,.965-.858V22.06a.864.864,0,0,0-.77-.858l-6.069-.673a.865.865,0,0,0-.961.858ZM25.4,0,55.315,6.876A3.455,3.455,0,0,1,58,10.241v6.686L25.4,11.55Zm3.11,8.45a.864.864,0,0,0,.7.848l6.069,1.158a.865.865,0,0,0,1.028-.848V8.458a.864.864,0,0,0-.71-.849L29.533,6.5a.865.865,0,0,0-1.022.849ZM0,29.919l23.136-1.444V40H3.463A3.458,3.458,0,0,1,0,36.547ZM0,17.595l23.136-3.416V25.9L0,27.634ZM0,7.953A3.455,3.455,0,0,1,2.7,4.584L23.136,0V11.55L0,15.282Z"/>
	</symbol>
</svg>