<svg xmlns="http://www.w3.org/2000/svg">
	<symbol id="shared" viewBox="0 0 704 160">
		<path d="m688 60a19.884 19.884 0 0 0 -12 4.027v-40.027a4 4 0 0 1 4-4h16a4 4 0 0 1 4 4v40.027a19.885 19.885 0 0 0 -12-4.027zm0-34a6 6 0 1 0 6 6 6 6 0 0 0 -6-6zm0 38a16 16 0 1 1 -16 16 16 16 0 0 1 16-16zm0 24a8 8 0 1 0 -8-8 8 8 0 0 0 8 8zm-16 3.964v52.036a16 16 0 0 1 -16 16h-608a16 16 0 0 1 -16-16v-52.036a19.891 19.891 0 0 0 0-23.927v-52.037a16 16 0 0 1 16-16h608a16 16 0 0 1 16 16v52.036a19.891 19.891 0 0 0 0 23.927zm-136-59.964a8 8 0 0 0 -8-8h-464a8 8 0 0 0 -8 8v96a8 8 0 0 0 8 8h464a8 8 0 0 0 8-8zm28-8a4 4 0 1 0 4 4 4 4 0 0 0 -4-4zm0 16a4 4 0 1 0 4 4 4 4 0 0 0 -4-4zm0 16a4 4 0 1 0 4 4 4 4 0 0 0 -4-4zm0 16a4 4 0 1 0 4 4 4 4 0 0 0 -4-4zm0 16a4 4 0 1 0 4 4 4 4 0 0 0 -4-4zm16-64a4 4 0 1 0 4 4 4 4 0 0 0 -4-4zm0 16a4 4 0 1 0 4 4 4 4 0 0 0 -4-4zm0 16a4 4 0 1 0 4 4 4 4 0 0 0 -4-4zm0 16a4 4 0 1 0 4 4 4 4 0 0 0 -4-4zm0 16a4 4 0 1 0 4 4 4 4 0 0 0 -4-4zm16-64a4 4 0 1 0 4 4 4 4 0 0 0 -4-4zm0 16a4 4 0 1 0 4 4 4 4 0 0 0 -4-4zm0 16a4 4 0 1 0 4 4 4 4 0 0 0 -4-4zm0 16a4 4 0 1 0 4 4 4 4 0 0 0 -4-4zm0 16a4 4 0 1 0 4 4 4 4 0 0 0 -4-4zm16-64a4 4 0 1 0 4 4 4 4 0 0 0 -4-4zm0 16a4 4 0 1 0 4 4 4 4 0 0 0 -4-4zm0 16a4 4 0 1 0 4 4 4 4 0 0 0 -4-4zm0 16a4 4 0 1 0 4 4 4 4 0 0 0 -4-4zm0 16a4 4 0 1 0 4 4 4 4 0 0 0 -4-4zm4 32a8 8 0 1 0 8 8 8 8 0 0 0 -8-8zm12-96a4 4 0 1 0 4 4 4 4 0 0 0 -4-4zm0 16a4 4 0 1 0 4 4 4 4 0 0 0 -4-4zm0 16a4 4 0 1 0 4 4 4 4 0 0 0 -4-4zm0 16a4 4 0 1 0 4 4 4 4 0 0 0 -4-4zm0 16a4 4 0 1 0 4 4 4 4 0 0 0 -4-4zm16-64a4 4 0 1 0 4 4 4 4 0 0 0 -4-4zm0 16a4 4 0 1 0 4 4 4 4 0 0 0 -4-4zm0 16a4 4 0 1 0 4 4 4 4 0 0 0 -4-4zm0 16a4 4 0 1 0 4 4 4 4 0 0 0 -4-4zm0 16a4 4 0 1 0 4 4 4 4 0 0 0 -4-4zm-4 32a8 8 0 1 0 8 8 8 8 0 0 0 -8-8zm0 12a4 4 0 1 1 4-4 4 4 0 0 1 -4 4zm-112 0h-56a4 4 0 0 1 -4-4v-76h64v76a4 4 0 0 1 -4 4zm-60-100a4 4 0 0 1 4-4h56a4 4 0 0 1 4 4v16h-64zm-8 100h-56a4 4 0 0 1 -4-4v-76h64v76a4 4 0 0 1 -4 4zm-60-100a4 4 0 0 1 4-4h56a4 4 0 0 1 4 4v16h-64zm-8 100h-56a4 4 0 0 1 -4-4v-76h64v76a4 4 0 0 1 -4 4zm-60-100a4 4 0 0 1 4-4h56a4 4 0 0 1 4 4v16h-64zm-8 100h-56a4 4 0 0 1 -4-4v-76h64v76a4 4 0 0 1 -4 4zm-60-100a4 4 0 0 1 4-4h56a4 4 0 0 1 4 4v16h-64zm-8 100h-56a4 4 0 0 1 -4-4v-76h64v76a4 4 0 0 1 -4 4zm-60-100a4 4 0 0 1 4-4h56a4 4 0 0 1 4 4v16h-64zm-8 100h-56a4 4 0 0 1 -4-4v-76h64v76a4 4 0 0 1 -4 4zm-60-100a4 4 0 0 1 4-4h56a4 4 0 0 1 4 4v16h-64zm-8 100h-56a4 4 0 0 1 -4-4v-76h64v76a4 4 0 0 1 -4 4zm-60-100a4 4 0 0 1 4-4h56a4 4 0 0 1 4 4v16h-64zm-44 28a19.885 19.885 0 0 0 -12 4.027v-40.027a4 4 0 0 1 4-4h16a4 4 0 0 1 4 4v40.027a19.884 19.884 0 0 0 -12-4.027zm0-34a6 6 0 1 0 6 6 6 6 0 0 0 -6-6zm0 38a16 16 0 1 1 -16 16 16 16 0 0 1 16-16zm0 24a8 8 0 1 0 -8-8 8 8 0 0 0 8 8zm0 12a19.884 19.884 0 0 0 12-4.027v40.027a4 4 0 0 1 -4 4h-16a4 4 0 0 1 -4-4v-40.027a19.885 19.885 0 0 0 12 4.027zm0 34a6 6 0 1 0 -6-6 6 6 0 0 0 6 6zm672-34a19.885 19.885 0 0 0 12-4.027v40.027a4 4 0 0 1 -4 4h-16a4 4 0 0 1 -4-4v-40.027a19.884 19.884 0 0 0 12 4.027zm0 34a6 6 0 1 0 -6-6 6 6 0 0 0 6 6z"/>
	</symbol>
	<symbol id="virtual" viewBox="0 0 704 160">
		<path d="m688 60a19.884 19.884 0 0 0 -12 4.027v-40.027a4 4 0 0 1 4-4h16a4 4 0 0 1 4 4v40.027a19.885 19.885 0 0 0 -12-4.027zm0-34a6 6 0 1 0 6 6 6 6 0 0 0 -6-6zm0 38a16 16 0 1 1 -16 16 16 16 0 0 1 16-16zm0 24a8 8 0 1 0 -8-8 8 8 0 0 0 8 8zm-16 3.964v52.036a16 16 0 0 1 -16 16h-608a16 16 0 0 1 -16-16v-52.036a19.891 19.891 0 0 0 0-23.927v-52.037a16 16 0 0 1 16-16h608a16 16 0 0 1 16 16v52.036a19.891 19.891 0 0 0 0 23.927zm-24-59.964a8 8 0 0 0 -8-8h-576a8 8 0 0 0 -8 8v96a8 8 0 0 0 8 8h576a8 8 0 0 0 8-8zm-8 100h-184a4 4 0 0 1 -4-4v-96a4 4 0 0 1 4-4h184a4 4 0 0 1 4 4v96a4 4 0 0 1 -4 4zm-168-88a4 4 0 1 0 4 4 4 4 0 0 0 -4-4zm0 16a4 4 0 1 0 4 4 4 4 0 0 0 -4-4zm16-16a4 4 0 1 0 4 4 4 4 0 0 0 -4-4zm0 16a4 4 0 1 0 4 4 4 4 0 0 0 -4-4zm16-16a4 4 0 1 0 4 4 4 4 0 0 0 -4-4zm0 16a4 4 0 1 0 4 4 4 4 0 0 0 -4-4zm16-16a4 4 0 1 0 4 4 4 4 0 0 0 -4-4zm0 16a4 4 0 1 0 4 4 4 4 0 0 0 -4-4zm16-16a4 4 0 1 0 4 4 4 4 0 0 0 -4-4zm0 16a4 4 0 1 0 4 4 4 4 0 0 0 -4-4zm16-16a4 4 0 1 0 4 4 4 4 0 0 0 -4-4zm0 16a4 4 0 1 0 4 4 4 4 0 0 0 -4-4zm44-12a8 8 0 1 0 8 8 8 8 0 0 0 -8-8zm24 0a8 8 0 1 0 8 8 8 8 0 0 0 -8-8zm8 40a4 4 0 0 0 -4-4h-152a4 4 0 0 0 -4 4v24a4 4 0 0 0 4 4h152a4 4 0 0 0 4-4zm-8 24h-120v-24h120a4 4 0 0 1 4 4v16a4 4 0 0 1 -4 4zm-148-4v-16a4 4 0 0 1 4-4h20v24h-20a4 4 0 0 1 -4-4zm148-48a4 4 0 1 1 4-4 4 4 0 0 1 -4 4zm-176 72h-184a4 4 0 0 1 -4-4v-96a4 4 0 0 1 4-4h184a4 4 0 0 1 4 4v96a4 4 0 0 1 -4 4zm-168-88a4 4 0 1 0 4 4 4 4 0 0 0 -4-4zm0 16a4 4 0 1 0 4 4 4 4 0 0 0 -4-4zm16-16a4 4 0 1 0 4 4 4 4 0 0 0 -4-4zm0 16a4 4 0 1 0 4 4 4 4 0 0 0 -4-4zm16-16a4 4 0 1 0 4 4 4 4 0 0 0 -4-4zm0 16a4 4 0 1 0 4 4 4 4 0 0 0 -4-4zm16-16a4 4 0 1 0 4 4 4 4 0 0 0 -4-4zm0 16a4 4 0 1 0 4 4 4 4 0 0 0 -4-4zm16-16a4 4 0 1 0 4 4 4 4 0 0 0 -4-4zm0 16a4 4 0 1 0 4 4 4 4 0 0 0 -4-4zm16-16a4 4 0 1 0 4 4 4 4 0 0 0 -4-4zm0 16a4 4 0 1 0 4 4 4 4 0 0 0 -4-4zm44-12a8 8 0 1 0 8 8 8 8 0 0 0 -8-8zm24 0a8 8 0 1 0 8 8 8 8 0 0 0 -8-8zm8 40a4 4 0 0 0 -4-4h-152a4 4 0 0 0 -4 4v24a4 4 0 0 0 4 4h152a4 4 0 0 0 4-4zm-8 24h-120v-24h120a4 4 0 0 1 4 4v16a4 4 0 0 1 -4 4zm-148-4v-16a4 4 0 0 1 4-4h20v24h-20a4 4 0 0 1 -4-4zm148-48a4 4 0 1 1 4-4 4 4 0 0 1 -4 4zm-176 72h-184a4 4 0 0 1 -4-4v-96a4 4 0 0 1 4-4h184a4 4 0 0 1 4 4v96a4 4 0 0 1 -4 4zm-168-88a4 4 0 1 0 4 4 4 4 0 0 0 -4-4zm0 16a4 4 0 1 0 4 4 4 4 0 0 0 -4-4zm16-16a4 4 0 1 0 4 4 4 4 0 0 0 -4-4zm0 16a4 4 0 1 0 4 4 4 4 0 0 0 -4-4zm16-16a4 4 0 1 0 4 4 4 4 0 0 0 -4-4zm0 16a4 4 0 1 0 4 4 4 4 0 0 0 -4-4zm16-16a4 4 0 1 0 4 4 4 4 0 0 0 -4-4zm0 16a4 4 0 1 0 4 4 4 4 0 0 0 -4-4zm16-16a4 4 0 1 0 4 4 4 4 0 0 0 -4-4zm0 16a4 4 0 1 0 4 4 4 4 0 0 0 -4-4zm16-16a4 4 0 1 0 4 4 4 4 0 0 0 -4-4zm0 16a4 4 0 1 0 4 4 4 4 0 0 0 -4-4zm44-12a8 8 0 1 0 8 8 8 8 0 0 0 -8-8zm24 0a8 8 0 1 0 8 8 8 8 0 0 0 -8-8zm8 40a4 4 0 0 0 -4-4h-152a4 4 0 0 0 -4 4v24a4 4 0 0 0 4 4h152a4 4 0 0 0 4-4zm-8 24h-120v-24h120a4 4 0 0 1 4 4v16a4 4 0 0 1 -4 4zm-148-4v-16a4 4 0 0 1 4-4h20v24h-20a4 4 0 0 1 -4-4zm148-48a4 4 0 1 1 4-4 4 4 0 0 1 -4 4zm-212 0a19.885 19.885 0 0 0 -12 4.027v-40.027a4 4 0 0 1 4-4h16a4 4 0 0 1 4 4v40.027a19.884 19.884 0 0 0 -12-4.027zm0-34a6 6 0 1 0 6 6 6 6 0 0 0 -6-6zm0 38a16 16 0 1 1 -16 16 16 16 0 0 1 16-16zm0 24a8 8 0 1 0 -8-8 8 8 0 0 0 8 8zm0 12a19.884 19.884 0 0 0 12-4.027v40.027a4 4 0 0 1 -4 4h-16a4 4 0 0 1 -4-4v-40.027a19.885 19.885 0 0 0 12 4.027zm0 34a6 6 0 1 0 -6-6 6 6 0 0 0 6 6zm672-34a19.885 19.885 0 0 0 12-4.027v40.027a4 4 0 0 1 -4 4h-16a4 4 0 0 1 -4-4v-40.027a19.884 19.884 0 0 0 12 4.027zm0 34a6 6 0 1 0 -6-6 6 6 0 0 0 6 6z"/>
	</symbol>
	<symbol id="dedicated" viewBox="0 0 704 160">
		<path d="m688 60a19.884 19.884 0 0 0 -12 4.027v-40.027a4 4 0 0 1 4-4h16a4 4 0 0 1 4 4v40.027a19.885 19.885 0 0 0 -12-4.027zm0-34a6 6 0 1 0 6 6 6 6 0 0 0 -6-6zm0 38a16 16 0 1 1 -16 16 16 16 0 0 1 16-16zm0 24a8 8 0 1 0 -8-8 8 8 0 0 0 8 8zm-16 3.964v52.036a16 16 0 0 1 -16 16h-608a16 16 0 0 1 -16-16v-52.036a19.891 19.891 0 0 0 0-23.927v-52.037a16 16 0 0 1 16-16h608a16 16 0 0 1 16 16v52.036a19.891 19.891 0 0 0 0 23.927zm-612-67.964a4 4 0 1 0 4 4 4 4 0 0 0 -4-4zm0 16a4 4 0 1 0 4 4 4 4 0 0 0 -4-4zm0 16a4 4 0 1 0 4 4 4 4 0 0 0 -4-4zm16-32a4 4 0 1 0 4 4 4 4 0 0 0 -4-4zm0 16a4 4 0 1 0 4 4 4 4 0 0 0 -4-4zm0 16a4 4 0 1 0 4 4 4 4 0 0 0 -4-4zm16-32a4 4 0 1 0 4 4 4 4 0 0 0 -4-4zm0 16a4 4 0 1 0 4 4 4 4 0 0 0 -4-4zm0 16a4 4 0 1 0 4 4 4 4 0 0 0 -4-4zm16-32a4 4 0 1 0 4 4 4 4 0 0 0 -4-4zm0 16a4 4 0 1 0 4 4 4 4 0 0 0 -4-4zm0 16a4 4 0 1 0 4 4 4 4 0 0 0 -4-4zm16-32a4 4 0 1 0 4 4 4 4 0 0 0 -4-4zm0 16a4 4 0 1 0 4 4 4 4 0 0 0 -4-4zm0 16a4 4 0 1 0 4 4 4 4 0 0 0 -4-4zm16-32a4 4 0 1 0 4 4 4 4 0 0 0 -4-4zm0 16a4 4 0 1 0 4 4 4 4 0 0 0 -4-4zm0 16a4 4 0 1 0 4 4 4 4 0 0 0 -4-4zm16-32a4 4 0 1 0 4 4 4 4 0 0 0 -4-4zm0 16a4 4 0 1 0 4 4 4 4 0 0 0 -4-4zm0 16a4 4 0 1 0 4 4 4 4 0 0 0 -4-4zm16-32a4 4 0 1 0 4 4 4 4 0 0 0 -4-4zm0 16a4 4 0 1 0 4 4 4 4 0 0 0 -4-4zm0 16a4 4 0 1 0 4 4 4 4 0 0 0 -4-4zm16-32a4 4 0 1 0 4 4 4 4 0 0 0 -4-4zm0 16a4 4 0 1 0 4 4 4 4 0 0 0 -4-4zm0 16a4 4 0 1 0 4 4 4 4 0 0 0 -4-4zm16-32a4 4 0 1 0 4 4 4 4 0 0 0 -4-4zm0 16a4 4 0 1 0 4 4 4 4 0 0 0 -4-4zm0 16a4 4 0 1 0 4 4 4 4 0 0 0 -4-4zm16-32a4 4 0 1 0 4 4 4 4 0 0 0 -4-4zm0 16a4 4 0 1 0 4 4 4 4 0 0 0 -4-4zm0 16a4 4 0 1 0 4 4 4 4 0 0 0 -4-4zm16-32a4 4 0 1 0 4 4 4 4 0 0 0 -4-4zm0 16a4 4 0 1 0 4 4 4 4 0 0 0 -4-4zm0 16a4 4 0 1 0 4 4 4 4 0 0 0 -4-4zm4 32h-176a8 8 0 0 0 -8 8v32a8 8 0 0 0 8 8h176a8 8 0 0 0 8-8v-32a8 8 0 0 0 -8-8zm12-64a4 4 0 1 0 4 4 4 4 0 0 0 -4-4zm0 16a4 4 0 1 0 4 4 4 4 0 0 0 -4-4zm0 16a4 4 0 1 0 4 4 4 4 0 0 0 -4-4zm16-32a4 4 0 1 0 4 4 4 4 0 0 0 -4-4zm0 16a4 4 0 1 0 4 4 4 4 0 0 0 -4-4zm0 16a4 4 0 1 0 4 4 4 4 0 0 0 -4-4zm16-32a4 4 0 1 0 4 4 4 4 0 0 0 -4-4zm0 16a4 4 0 1 0 4 4 4 4 0 0 0 -4-4zm0 16a4 4 0 1 0 4 4 4 4 0 0 0 -4-4zm16-32a4 4 0 1 0 4 4 4 4 0 0 0 -4-4zm0 16a4 4 0 1 0 4 4 4 4 0 0 0 -4-4zm0 16a4 4 0 1 0 4 4 4 4 0 0 0 -4-4zm16-32a4 4 0 1 0 4 4 4 4 0 0 0 -4-4zm0 16a4 4 0 1 0 4 4 4 4 0 0 0 -4-4zm0 16a4 4 0 1 0 4 4 4 4 0 0 0 -4-4zm16-32a4 4 0 1 0 4 4 4 4 0 0 0 -4-4zm0 16a4 4 0 1 0 4 4 4 4 0 0 0 -4-4zm0 16a4 4 0 1 0 4 4 4 4 0 0 0 -4-4zm16-32a4 4 0 1 0 4 4 4 4 0 0 0 -4-4zm0 16a4 4 0 1 0 4 4 4 4 0 0 0 -4-4zm0 16a4 4 0 1 0 4 4 4 4 0 0 0 -4-4zm16-32a4 4 0 1 0 4 4 4 4 0 0 0 -4-4zm0 16a4 4 0 1 0 4 4 4 4 0 0 0 -4-4zm0 16a4 4 0 1 0 4 4 4 4 0 0 0 -4-4zm16-32a4 4 0 1 0 4 4 4 4 0 0 0 -4-4zm0 16a4 4 0 1 0 4 4 4 4 0 0 0 -4-4zm0 16a4 4 0 1 0 4 4 4 4 0 0 0 -4-4zm16-32a4 4 0 1 0 4 4 4 4 0 0 0 -4-4zm0 16a4 4 0 1 0 4 4 4 4 0 0 0 -4-4zm0 16a4 4 0 1 0 4 4 4 4 0 0 0 -4-4zm16-32a4 4 0 1 0 4 4 4 4 0 0 0 -4-4zm0 16a4 4 0 1 0 4 4 4 4 0 0 0 -4-4zm0 16a4 4 0 1 0 4 4 4 4 0 0 0 -4-4zm16-32a4 4 0 1 0 4 4 4 4 0 0 0 -4-4zm0 16a4 4 0 1 0 4 4 4 4 0 0 0 -4-4zm0 16a4 4 0 1 0 4 4 4 4 0 0 0 -4-4zm16-32a4 4 0 1 0 4 4 4 4 0 0 0 -4-4zm0 16a4 4 0 1 0 4 4 4 4 0 0 0 -4-4zm0 16a4 4 0 1 0 4 4 4 4 0 0 0 -4-4zm4 40a8 8 0 0 0 -8-8h-176a8 8 0 0 0 -8 8v32a8 8 0 0 0 8 8h176a8 8 0 0 0 8-8zm12-72a4 4 0 1 0 4 4 4 4 0 0 0 -4-4zm0 16a4 4 0 1 0 4 4 4 4 0 0 0 -4-4zm0 16a4 4 0 1 0 4 4 4 4 0 0 0 -4-4zm16-32a4 4 0 1 0 4 4 4 4 0 0 0 -4-4zm0 16a4 4 0 1 0 4 4 4 4 0 0 0 -4-4zm0 16a4 4 0 1 0 4 4 4 4 0 0 0 -4-4zm16-32a4 4 0 1 0 4 4 4 4 0 0 0 -4-4zm0 16a4 4 0 1 0 4 4 4 4 0 0 0 -4-4zm0 16a4 4 0 1 0 4 4 4 4 0 0 0 -4-4zm16-32a4 4 0 1 0 4 4 4 4 0 0 0 -4-4zm0 16a4 4 0 1 0 4 4 4 4 0 0 0 -4-4zm0 16a4 4 0 1 0 4 4 4 4 0 0 0 -4-4zm16-32a4 4 0 1 0 4 4 4 4 0 0 0 -4-4zm0 16a4 4 0 1 0 4 4 4 4 0 0 0 -4-4zm0 16a4 4 0 1 0 4 4 4 4 0 0 0 -4-4zm16-32a4 4 0 1 0 4 4 4 4 0 0 0 -4-4zm0 16a4 4 0 1 0 4 4 4 4 0 0 0 -4-4zm0 16a4 4 0 1 0 4 4 4 4 0 0 0 -4-4zm16-32a4 4 0 1 0 4 4 4 4 0 0 0 -4-4zm0 16a4 4 0 1 0 4 4 4 4 0 0 0 -4-4zm0 16a4 4 0 1 0 4 4 4 4 0 0 0 -4-4zm16-32a4 4 0 1 0 4 4 4 4 0 0 0 -4-4zm0 16a4 4 0 1 0 4 4 4 4 0 0 0 -4-4zm0 16a4 4 0 1 0 4 4 4 4 0 0 0 -4-4zm44-20a8 8 0 1 0 8 8 8 8 0 0 0 -8-8zm24 0a8 8 0 1 0 8 8 8 8 0 0 0 -8-8zm8 60a8 8 0 0 0 -8-8h-176a8 8 0 0 0 -8 8v32a8 8 0 0 0 8 8h176a8 8 0 0 0 8-8zm-8 36h-136v-40h136a4 4 0 0 1 4 4v32a4 4 0 0 1 -4 4zm-180-4v-32a4 4 0 0 1 4-4h36v40h-36a4 4 0 0 1 -4-4zm180-80a4 4 0 1 1 4-4 4 4 0 0 1 -4 4zm-200 84h-136v-40h136a4 4 0 0 1 4 4v32a4 4 0 0 1 -4 4zm-180-4v-32a4 4 0 0 1 4-4h36v40h-36a4 4 0 0 1 -4-4zm-20 4h-136v-40h136a4 4 0 0 1 4 4v32a4 4 0 0 1 -4 4zm-180-4v-32a4 4 0 0 1 4-4h36v40h-36a4 4 0 0 1 -4-4zm-44-68a19.885 19.885 0 0 0 -12 4.027v-40.027a4 4 0 0 1 4-4h16a4 4 0 0 1 4 4v40.027a19.884 19.884 0 0 0 -12-4.027zm0-34a6 6 0 1 0 6 6 6 6 0 0 0 -6-6zm0 38a16 16 0 1 1 -16 16 16 16 0 0 1 16-16zm0 24a8 8 0 1 0 -8-8 8 8 0 0 0 8 8zm0 12a19.884 19.884 0 0 0 12-4.027v40.027a4 4 0 0 1 -4 4h-16a4 4 0 0 1 -4-4v-40.027a19.885 19.885 0 0 0 12 4.027zm0 34a6 6 0 1 0 -6-6 6 6 0 0 0 6 6zm672-34a19.885 19.885 0 0 0 12-4.027v40.027a4 4 0 0 1 -4 4h-16a4 4 0 0 1 -4-4v-40.027a19.884 19.884 0 0 0 12 4.027zm0 34a6 6 0 1 0 -6-6 6 6 0 0 0 6 6z"/>
	</symbol>
	<symbol id="plain" viewBox="0 0 704 160">
		<path d="M688,60a19.884,19.884,0,0,0-12,4.027V24a4,4,0,0,1,4-4h16a4,4,0,0,1,4,4V64.027A19.885,19.885,0,0,0,688,60Zm0-34a6,6,0,1,0,6,6A6,6,0,0,0,688,26Zm0,38a16,16,0,1,1-16,16A16,16,0,0,1,688,64Zm0,24a8,8,0,1,0-8-8A8,8,0,0,0,688,88Zm-32,72H48a16,16,0,0,1-16-16V91.964a19.891,19.891,0,0,0,0-23.927V16A16,16,0,0,1,48,0H656a16,16,0,0,1,16,16V68.036a19.891,19.891,0,0,0,0,23.927V144A16,16,0,0,1,656,160ZM16,96A16,16,0,1,1,32,80,16,16,0,0,1,16,96Zm0-24a8,8,0,1,0,8,8A8,8,0,0,0,16,72Zm0-12A19.885,19.885,0,0,0,4,64.027V24a4,4,0,0,1,4-4H24a4,4,0,0,1,4,4V64.027A19.884,19.884,0,0,0,16,60Zm0-34a6,6,0,1,0,6,6A6,6,0,0,0,16,26Zm0,74a19.884,19.884,0,0,0,12-4.027V136a4,4,0,0,1-4,4H8a4,4,0,0,1-4-4V95.973A19.885,19.885,0,0,0,16,100Zm0,34a6,6,0,1,0-6-6A6,6,0,0,0,16,134Zm672-34a19.885,19.885,0,0,0,12-4.027V136a4,4,0,0,1-4,4H680a4,4,0,0,1-4-4V95.973A19.884,19.884,0,0,0,688,100Zm0,34a6,6,0,1,0-6-6A6,6,0,0,0,688,134Z"/>
	</symbol>
</svg>